<mxfile host="app.diagrams.net" modified="2023-10-30T11:10:47.412Z" agent="Mozilla/5.0 (Windows NT 10.0; Win64; x64) AppleWebKit/537.36 (KHTML, like Gecko) Chrome/118.0.0.0 Safari/537.36" etag="9b5MrrG2R6RSTevLnIMB" version="22.0.8" type="device">
  <diagram name="페이지-1" id="Ymygqne0w0MdOcS1hWgE">
    <mxGraphModel dx="1221" dy="626" grid="0" gridSize="10" guides="1" tooltips="1" connect="1" arrows="1" fold="1" page="1" pageScale="1" pageWidth="827" pageHeight="1169" math="0" shadow="0">
      <root>
        <mxCell id="0" />
        <mxCell id="1" parent="0" />
        <mxCell id="wdszKkBx4qrV9BQNb8yv-1" value="RAM" style="rounded=1;whiteSpace=wrap;html=1;" vertex="1" parent="1">
          <mxGeometry x="160" y="80" width="400" height="60" as="geometry" />
        </mxCell>
        <mxCell id="wdszKkBx4qrV9BQNb8yv-8" style="edgeStyle=orthogonalEdgeStyle;rounded=0;orthogonalLoop=1;jettySize=auto;html=1;entryX=0;entryY=0.5;entryDx=0;entryDy=0;" edge="1" parent="1" source="wdszKkBx4qrV9BQNb8yv-3" target="wdszKkBx4qrV9BQNb8yv-4">
          <mxGeometry relative="1" as="geometry" />
        </mxCell>
        <mxCell id="wdszKkBx4qrV9BQNb8yv-3" value="Memory" style="rounded=1;whiteSpace=wrap;html=1;" vertex="1" parent="1">
          <mxGeometry x="160" y="280" width="120" height="60" as="geometry" />
        </mxCell>
        <mxCell id="wdszKkBx4qrV9BQNb8yv-9" style="edgeStyle=orthogonalEdgeStyle;rounded=0;orthogonalLoop=1;jettySize=auto;html=1;entryX=0;entryY=0.5;entryDx=0;entryDy=0;" edge="1" parent="1" source="wdszKkBx4qrV9BQNb8yv-4" target="wdszKkBx4qrV9BQNb8yv-5">
          <mxGeometry relative="1" as="geometry" />
        </mxCell>
        <mxCell id="wdszKkBx4qrV9BQNb8yv-4" value="Control" style="rounded=1;whiteSpace=wrap;html=1;" vertex="1" parent="1">
          <mxGeometry x="330" y="260" width="60" height="100" as="geometry" />
        </mxCell>
        <mxCell id="wdszKkBx4qrV9BQNb8yv-5" value="Arithmetic" style="rounded=1;whiteSpace=wrap;html=1;" vertex="1" parent="1">
          <mxGeometry x="440" y="280" width="120" height="60" as="geometry" />
        </mxCell>
        <mxCell id="wdszKkBx4qrV9BQNb8yv-15" style="edgeStyle=orthogonalEdgeStyle;rounded=0;orthogonalLoop=1;jettySize=auto;html=1;entryX=0.5;entryY=0;entryDx=0;entryDy=0;" edge="1" parent="1" source="wdszKkBx4qrV9BQNb8yv-2" target="wdszKkBx4qrV9BQNb8yv-4">
          <mxGeometry relative="1" as="geometry" />
        </mxCell>
        <mxCell id="wdszKkBx4qrV9BQNb8yv-2" value="CPU" style="rounded=1;whiteSpace=wrap;html=1;" vertex="1" parent="1">
          <mxGeometry x="160" y="180" width="400" height="60" as="geometry" />
        </mxCell>
        <mxCell id="wdszKkBx4qrV9BQNb8yv-13" value="" style="endArrow=classic;html=1;rounded=0;" edge="1" parent="1">
          <mxGeometry width="50" height="50" relative="1" as="geometry">
            <mxPoint x="220" y="140" as="sourcePoint" />
            <mxPoint x="220" y="180" as="targetPoint" />
          </mxGeometry>
        </mxCell>
        <mxCell id="wdszKkBx4qrV9BQNb8yv-14" value="" style="endArrow=classic;html=1;rounded=0;" edge="1" parent="1">
          <mxGeometry width="50" height="50" relative="1" as="geometry">
            <mxPoint x="221" y="240" as="sourcePoint" />
            <mxPoint x="221" y="280" as="targetPoint" />
          </mxGeometry>
        </mxCell>
        <mxCell id="wdszKkBx4qrV9BQNb8yv-16" style="edgeStyle=orthogonalEdgeStyle;rounded=0;orthogonalLoop=1;jettySize=auto;html=1;" edge="1" parent="1" source="wdszKkBx4qrV9BQNb8yv-5">
          <mxGeometry relative="1" as="geometry">
            <mxPoint x="500" y="240" as="targetPoint" />
          </mxGeometry>
        </mxCell>
        <mxCell id="wdszKkBx4qrV9BQNb8yv-17" style="edgeStyle=orthogonalEdgeStyle;rounded=0;orthogonalLoop=1;jettySize=auto;html=1;" edge="1" parent="1">
          <mxGeometry relative="1" as="geometry">
            <mxPoint x="501" y="180" as="sourcePoint" />
            <mxPoint x="501" y="140" as="targetPoint" />
          </mxGeometry>
        </mxCell>
      </root>
    </mxGraphModel>
  </diagram>
</mxfile>
